<?xml version="1.0" encoding="UTF-8" standalone="no"?>
<!DOCTYPE svg PUBLIC "-//W3C//DTD SVG 1.1//EN" "http://www.w3.org/Graphics/SVG/1.1/DTD/svg11.dtd">
<svg xmlns="http://www.w3.org/2000/svg">
<metadata>Generated by IcoMoon</metadata>
<defs>
<font id="icomoon" horiz-adv-x="1024">
<font-face units-per-em="1024" ascent="960" descent="-64"/>
<missing-glyph horiz-adv-x="1024"/>
<glyph unicode=" " horiz-adv-x="512" d=""/>
<glyph unicode="" glyph-name="user" d="M512 426.667c-117.821 0-213.333 95.513-213.333 213.333s95.513 213.333 213.333 213.333c117.821 0 213.333-95.513 213.333-213.333s-95.513-213.333-213.333-213.333zM512 768c-70.692 0-128-57.308-128-128s57.308-128 128-128c70.692 0 128 57.308 128 128s-57.308 128-128 128zM936.107 14.934l-96.853 256c-24.235 67.596-88.191 112.792-160 113.067h-334.507c-71.155 0.12-134.918-43.919-160-110.507l-96.853-258.56 80.213-29.867 96.853 258.133c12.444 33.305 44.233 55.404 79.787 55.467h334.507c35.554-0.062 67.343-22.162 79.787-55.467l96.853-258.133 80.213 29.867z"/>
<glyph unicode="" glyph-name="share" d="M419.055 505.458l-76.28-38.252c-15.373 30.656-46.505 50.358-81.199 50.358-50.202 0-90.923-40.712-90.923-90.88 0-50.207 40.716-90.923 90.923-90.923 34.694 0 65.826 19.702 81.199 50.358l76.28-38.252c-29.682-59.191-90.121-97.44-157.479-97.44-97.335 0-176.256 78.921-176.256 176.256 0 97.301 78.93 176.213 176.256 176.213 67.358 0 127.796-38.249 157.479-97.44zM762.415 500.877v85.333c50.219 0 90.923 40.686 90.923 90.88 0 50.207-40.716 90.923-90.923 90.923-50.194 0-90.88-40.704-90.88-90.923 0-14.135 3.337-27.9 9.697-40.682l-76.397-38.017c-12.151 24.417-18.634 51.163-18.634 78.699 0 97.339 78.882 176.256 176.213 176.256 97.335 0 176.256-78.921 176.256-176.256 0-97.331-78.917-176.213-176.256-176.213zM604.891 255.020l76.302-38.206c-30.156-60.225 13.752-131.467 81.23-131.467 50.223 0 90.923 40.69 90.923 90.923 0 50.156-40.708 90.837-90.923 90.837v85.333c97.33 0 176.256-78.874 176.256-176.171 0-97.365-78.909-176.256-176.256-176.256-130.978 0-216.080 138.081-157.533 255.007zM762.415 352.44v-85.333c-34.716 0-65.85-19.682-81.256-50.345-10.565-21.028-36.161-29.531-57.209-19.006l-262.101 131.072c-21.075 10.539-29.616 36.167-19.079 57.242 6.366 12.732 9.704 26.471 9.704 40.61 0 14.172-3.333 27.887-9.667 40.494-10.592 21.084-2.061 46.761 19.042 57.315l262.101 131.072c21.048 10.526 46.643 2.022 57.209-19.006 15.406-30.662 46.541-50.345 81.256-50.345v-85.333c-52.574 0-100.927 23.275-133.755 61.63l-195.091-97.561c2.797-12.458 4.238-25.27 4.238-38.266 0-13.001-1.445-25.822-4.252-38.302l195.105-97.568c32.827 38.355 81.181 61.63 133.755 61.63z"/>
<glyph unicode="" glyph-name="audio" d="M128 341.334h-42.667v170.667h85.333v-128c0-23.552-19.072-42.667-42.667-42.667zM768 341.334h-42.667v170.667h85.333v-128c0-23.552-19.072-42.667-42.667-42.667zM896 256h-42.667v341.333h85.333v-298.667c0-23.552-19.072-42.667-42.667-42.667zM256 170.667h-42.667v512h85.333v-469.333c0-23.552-19.072-42.667-42.667-42.667zM640 298.667h-42.667v256h85.333v-213.333c0-23.552-19.072-42.667-42.667-42.667zM512-0h-42.667v853.333h85.333v-810.667c0-23.552-19.072-42.667-42.667-42.667zM384 256h-42.667v341.333h85.333v-298.667c0-23.552-19.072-42.667-42.667-42.667z"/>
<glyph unicode="" glyph-name="chevron-down" d="M226.24 493.295l59.521 61.148 193.075-187.952c17.229-17.556 45.423-17.744 63.417 0.107l196.224 188.075 59.047-61.605-195.691-187.555c-51.047-50.666-133.532-50.114-183.209 0.519l-192.384 187.264z"/>
<glyph unicode="" glyph-name="camera" d="M682.667 682.667v170.667h-213.333c-72.533 0-128-55.467-128-128v-42.667h-128c-72.533 0-128-55.467-128-128v-554.667h725.333c72.533 0 128 55.467 128 128v554.667h-256zM426.667 725.334c0 25.6 17.067 42.667 42.667 42.667h128v-85.333h-170.667v42.667zM853.333 128c0-25.6-17.067-42.667-42.667-42.667h-640v469.333c0 25.6 17.067 42.667 42.667 42.667h640v-469.333zM512 554.667c-119.467 0-213.333-93.867-213.333-213.333s93.867-213.333 213.333-213.333 213.333 93.867 213.333 213.333c0 119.467-93.867 213.333-213.333 213.333zM512 213.334c-72.533 0-128 55.467-128 128s55.467 128 128 128 128-55.467 128-128-55.467-128-128-128z"/>
<glyph unicode="" glyph-name="link-arrow" d="M748.511 254.797l-470.537 470.537-64.64-64.64 470.537-470.537h-407.741v-91.429h457.143c58.819 0 106.667 47.848 106.667 106.667v457.143h-91.429v-407.741z"/>
<glyph unicode="" glyph-name="more" d="M618.667 405.334c0-58.91-47.756-106.667-106.667-106.667s-106.667 47.756-106.667 106.667c0 58.91 47.756 106.667 106.667 106.667s106.667-47.756 106.667-106.667zM618.667 106.667c0-58.91-47.756-106.667-106.667-106.667s-106.667 47.756-106.667 106.667c0 58.91 47.756 106.667 106.667 106.667s106.667-47.756 106.667-106.667zM618.667 704c0-58.91-47.756-106.667-106.667-106.667s-106.667 47.756-106.667 106.667c0 58.91 47.756 106.667 106.667 106.667s106.667-47.756 106.667-106.667z"/>
<glyph unicode="" glyph-name="play" d="M847.36 512l-719.36 341.333v-853.333l720.213 356.693c30.681 13.754 50.425 44.243 50.425 77.867s-19.744 64.112-50.425 77.867l-0.853-0.427zM213.333 140.8v574.293l592.213-280.747-592.213-293.547z"/>
<glyph unicode="" glyph-name="star" d="M919.377 521.366c5.973 6.187 2.517 16.512-5.973 17.835l-269.568 41.216c-3.456 0.512-6.443 2.731-7.936 5.888l-122.496 260.992c-3.797 8.064-15.317 8.064-19.072 0l-122.496-260.992c-1.536-3.157-4.48-5.376-7.979-5.888l-269.568-41.216c-8.491-1.323-11.947-11.648-5.973-17.835l195.584-200.405c2.347-2.389 3.413-5.76 2.859-9.045l-46.592-285.739c-1.451-8.747 7.808-15.232 15.488-10.965l243.115 134.357c3.157 1.749 6.997 1.749 10.197 0l243.072-134.357c7.723-4.267 16.939 2.219 15.531 10.965l-46.592 285.739c-0.555 3.285 0.512 6.656 2.859 9.045l195.541 200.405z"/>
<glyph unicode="" glyph-name="burger" d="M85.333 213.334h768c47.128 0 85.333-38.205 85.333-85.333h-853.333v85.333zM85.333 640h640c0 47.128-38.205 85.333-85.333 85.333h-554.667v-85.333zM85.333 384h768c0 47.128-38.205 85.333-85.333 85.333h-682.667v-85.333z"/>
<glyph unicode="" glyph-name="star-outline" d="M508.74 247.51l129.707-71.723c7.979-4.395 17.536 2.304 16.085 11.349l-25.088 153.813c-0.597 3.456 0.512 6.955 2.944 9.429l109.013 111.701c6.229 6.4 2.603 17.152-6.187 18.475l-149.461 22.827c-3.627 0.555-6.741 2.859-8.277 6.187l-64.128 136.661c-3.925 8.363-15.872 8.363-19.797 0l-64.128-136.661c-1.579-3.328-4.651-5.632-8.277-6.187l-149.461-22.827c-8.789-1.323-12.416-12.075-6.187-18.475l109.013-111.701c2.432-2.475 3.541-5.973 2.944-9.429l-25.088-153.813c-1.451-9.045 8.107-15.744 16.085-11.349l129.707 71.723c3.285 1.792 7.296 1.792 10.581 0zM750.959 16.086l-242.219 133.931c-3.285 1.792-7.296 1.792-10.581 0l-242.219-133.931c-7.979-4.395-17.536 2.347-16.085 11.349l46.464 284.8c0.555 3.413-0.555 6.912-2.987 9.387l-194.901 199.723c-6.187 6.357-2.603 17.109 6.187 18.475l268.629 41.045c3.584 0.555 6.699 2.901 8.235 6.187l122.069 260.011c3.925 8.363 15.872 8.363 19.797 0l122.069-260.011c1.536-3.285 4.651-5.632 8.235-6.187l268.629-41.045c8.789-1.365 12.373-12.117 6.187-18.475l-194.901-199.723c-2.432-2.475-3.541-5.973-2.987-9.387l46.464-284.8c1.451-9.003-8.107-15.744-16.085-11.349z"/>
<glyph unicode="" glyph-name="snapchat" d="M500.971 20.113c-1.451 0-2.901-0.299-4.395-0.299-50.645 0-82.987 22.997-114.389 45.141-21.547 15.403-42.197 29.653-66.091 33.749-11.648 2.048-23.595 2.901-34.688 2.901-20.352 0-36.352-3.2-48-5.547-6.997-1.451-13.397-2.603-18.048-2.603-4.992 0-10.197 1.152-12.501 9.045-2.048 6.699-3.499 13.355-4.992 19.797-3.499 16.256-6.101 26.496-13.056 27.648-80.085 12.501-103.083 29.397-108.331 41.344-0.597 1.749-1.195 3.499-1.195 5.248-0.213 4.651 2.944 8.704 7.595 9.301 123.179 20.395 178.475 146.133 180.779 151.68 7.893 15.701 9.344 29.099 4.693 39.893-8.448 19.797-36.139 28.843-54.187 34.304-4.352 1.493-8.704 2.645-11.904 4.096-36.437 14.251-39.595 29.141-38.144 36.693 2.304 12.8 19.499 21.845 33.493 21.845 3.797 0 7.296-0.597 9.899-2.048 16.299-7.552 31.147-11.648 43.947-11.648 17.493 0 25.344 7.296 26.197 8.448-0.597 8.405-0.853 17.195-1.493 25.941-3.712 58.197-8.107 130.688 10.24 172.032 55.339 123.733 172.331 133.333 206.976 133.333 0.896 0 15.147 0.299 15.147 0.299 36.693 0 153.984-9.643 209.323-133.632 18.347-41.344 13.952-113.835 10.155-172.032l-0.299-2.645c-0.555-8.149-0.811-16.043-1.451-23.595 0.896-0.853 7.893-7.552 23.893-8.448 12.245 0.597 26.197 4.395 41.387 11.691 4.309 2.005 9.557 2.56 12.757 2.56 5.248 0 10.496-0.853 14.848-2.859 12.843-4.395 20.651-13.141 20.949-22.144 0.299-8.448-6.357-21.248-38.4-34.091-3.2-1.152-7.552-2.603-11.904-4.053-18.347-5.803-45.739-14.549-54.187-34.347-4.651-10.795-3.2-24.149 4.395-39.296 2.603-5.845 57.899-131.925 181.077-152.277 4.651-0.896 7.808-4.949 7.552-9.301 0-1.749-0.597-3.499-1.152-5.248-4.949-11.904-27.947-28.843-108.331-41.045-6.357-0.896-9.003-9.643-13.099-27.392-1.451-6.4-2.901-12.757-4.949-19.499-1.749-5.803-5.248-8.448-11.307-8.448-5.248 0-11.093 0.896-18.987 2.347-13.653 2.603-28.8 5.248-48 5.248-11.349 0-22.997-0.896-34.645-2.944-24.192-4.053-44.544-18.304-66.091-33.749-31.744-22.699-64.341-45.696-114.731-45.696-2.304 0-4.352 0-6.357 0.299z"/>
<glyph unicode="" glyph-name="active-tick" d="M512-0c-235.641 0-426.667 191.025-426.667 426.667s191.025 426.667 426.667 426.667c235.641 0 426.667-191.025 426.667-426.667s-191.025-426.667-426.667-426.667zM721.636 531.058l-39.538 37.831-236.942-245.76-123.733 106.951-36.978-43.236 120.889-103.822c10.55-10.614 24.857-16.644 39.822-16.782 15.302-0.013 29.964 6.139 40.676 17.067l235.804 247.751z"/>
<glyph unicode="" glyph-name="full-screen" d="M898.987 725.334v-213.333h-85.333v154.88l-227.413-227.84-60.587 60.587 226.133 225.707h-154.453v85.333h216.32c47.128 0 85.333-38.205 85.333-85.333zM438.613 414.294l-225.28-226.133v153.173h-85.333v-213.333c0-47.128 38.205-85.333 85.333-85.333h213.333v85.333h-151.467l224 225.707-60.587 60.587z"/>
<glyph unicode="" glyph-name="arrow-left" d="M938.667 384h-727.893l221.013-225.707-58.88-60.587-263.253 268.8c-33.086 33.283-33.086 87.037 0 120.32l263.253 268.8 58.88-60.587-221.013-225.707h727.893v-85.333z"/>
<glyph unicode="" glyph-name="arrow-right" d="M914.347 366.507l-262.827-268.8-58.88 60.587 220.587 225.707h-727.893v85.333h725.333l-218.027 225.707 58.88 60.587 262.827-268.8c33.086-33.283 33.086-87.037 0-120.32z"/>
<glyph unicode="" glyph-name="twitter" d="M936.546 679.501c-30.891-13.781-56.875-14.251-84.48-0.64 35.584 21.291 37.248 36.309 50.091 76.544-33.28-19.755-70.187-34.133-109.44-41.856-31.403 33.451-76.245 54.443-125.781 54.443-95.189 0-172.331-77.184-172.331-172.331 0-13.525 1.493-26.667 4.437-39.296-143.232 7.168-270.208 75.819-355.243 180.096-14.805-25.472-23.296-55.083-23.296-86.656 0-59.819 30.421-112.555 76.629-143.488-28.245 0.981-54.784 8.704-78.037 21.589-0.043-0.725-0.043-1.408-0.043-2.176 0-83.541 59.435-153.131 138.283-168.96-25.259-6.912-51.883-7.979-77.867-3.029 21.973-68.395 85.589-118.229 161.024-119.637-73.771-57.813-165.205-81.877-255.147-71.339 76.288-48.896 166.827-77.44 264.192-77.44 316.971 0 490.283 262.613 490.283 490.325 0 7.509-0.128 14.891-0.469 22.315 33.664 24.277 74.069 46.933 97.195 81.536z"/>
<glyph unicode="" glyph-name="google-plus" d="M86.042 425.293c2.347 139.563 130.688 261.803 270.251 257.152 66.859 3.115 129.749-25.984 180.949-66.901-21.845-24.832-44.501-48.768-68.651-71.125-61.611 42.539-149.163 54.699-210.773 5.547-88.064-60.928-92.075-204.757-7.339-270.336 82.389-74.795 238.165-37.675 260.907 76.843-51.584 0.768-103.339 0-154.965 1.664-0.128 30.763-0.256 61.568-0.128 92.373 86.272 0.256 172.544 0.384 258.944-0.256 5.163-72.448-4.352-149.547-48.853-209.451-67.413-94.805-202.709-122.496-308.309-81.877-105.899 40.363-180.949 152.235-172.032 266.368zM783.543 528.248h77.013c0.128-25.771 0.256-51.627 0.469-77.355 25.771-0.256 51.627-0.256 77.397-0.512v-76.971c-25.771-0.299-51.499-0.427-77.397-0.683-0.213-25.856-0.341-51.584-0.469-77.312h-77.141c-0.256 25.728-0.256 51.456-0.512 77.227-25.728 0.213-51.627 0.469-77.355 0.768v76.971c25.728 0.256 51.499 0.384 77.355 0.512 0.128 25.856 0.384 51.584 0.64 77.355z"/>
<glyph unicode="" glyph-name="facebook" d="M754.5 594.543h-158.549v70.784c0 33.28 22.059 41.045 37.589 41.045h111.019v146.475l-160.853 0.469c-145.92 0-173.568-109.184-173.568-179.115v-79.659h-111.488v-148.608h111.488v-445.952h185.813v445.952h143.061l15.488 148.608z"/>
<glyph unicode="" glyph-name="close" d="M575.147 426.667l235.52-235.52-63.147-63.147-235.52 235.52-235.52-235.52-63.147 63.147 235.52 235.52-235.52 235.52 63.147 63.147 235.52-235.52 235.52 235.52 63.147-63.147z"/>
<glyph unicode="" glyph-name="chevron-right" d="M725.333 426.667c0.022-34.202-14.017-66.91-38.827-90.453l-312.747-300.8-62.72 60.587 312.747 298.667c8.077 8.011 12.621 18.917 12.621 30.293s-4.543 22.282-12.621 30.293l-312.747 298.667 62.72 64 312.747-300.8c24.81-23.543 38.849-56.251 38.827-90.453z"/>
<glyph unicode="" glyph-name="breaking-news" d="M365.714 518.096c0-30.297-24.56-54.857-54.857-54.857s-54.857 24.56-54.857 54.857c0 30.297 24.56 54.857 54.857 54.857s54.857-24.56 54.857-54.857zM365.714 298.667c0-30.297-24.56-54.857-54.857-54.857s-54.857 24.56-54.857 54.857c0 30.297 24.56 54.857 54.857 54.857s54.857-24.56 54.857-54.857zM585.143 518.096c0-30.297-24.56-54.857-54.857-54.857s-54.857 24.56-54.857 54.857c0 30.297 24.56 54.857 54.857 54.857s54.857-24.56 54.857-54.857zM585.143 298.667c0-30.297-24.56-54.857-54.857-54.857s-54.857 24.56-54.857 54.857c0 30.297 24.56 54.857 54.857 54.857s54.857-24.56 54.857-54.857zM804.571 518.096c0-30.297-24.56-54.857-54.857-54.857s-54.857 24.56-54.857 54.857c0 30.297 24.56 54.857 54.857 54.857s54.857-24.56 54.857-54.857zM804.571 298.667c0-30.297-24.56-54.857-54.857-54.857s-54.857 24.56-54.857 54.857c0 30.297 24.56 54.857 54.857 54.857s54.857-24.56 54.857-54.857z"/>
<glyph unicode="" glyph-name="stopwatch" d="M938.667 426.667c0.421-196.716-133.706-368.223-324.725-415.223s-389.413 42.69-480.318 217.142c-90.905 174.452-50.755 388.444 97.203 518.081l60.16-60.16c-123.081-104.924-155.63-281.823-77.956-423.685s244.245-209.737 398.947-162.565c154.702 47.171 255.062 196.439 240.368 357.504s-140.408 289.708-301.092 308.106v-83.2h-85.333v170.667h42.667c113.749 0.91 223.153-43.64 303.908-123.755s126.176-189.159 126.172-302.912zM570.453 407.040l-209.493 209.92-62.293-62.293 149.333-149.333c16.299-16.331 38.517-25.365 61.588-25.044s45.028 9.972 60.866 26.751z"/>
<glyph unicode="" glyph-name="external-link" d="M896 725.334v-212.011h-85.333v153.472l-227.627-227.627-60.331 60.331 225.835 225.835h-154.325v85.333h216.448c47.061 0 85.333-38.272 85.333-85.333zM810.679 128v158.123h85.333v-160.64c0-45.215-35.558-82.816-80.597-82.816h-687.403v768h232.277v-85.333h-146.944v-597.333h597.333z"/>
<glyph unicode="" glyph-name="speech-bubble" d="M170.667 299.433v383.234h682.708v-383.234h-341.354l-213.714-171.432v171.432z"/>
<glyph unicode="" glyph-name="slash-2" d="M938.668 512c0 0-132.752-133.356-213.158-213.256h-195.396c0 0 59.365 59.259 127.332 126.967 27.101 26.995 65.114 64.874 86.689 86.289h194.534zM716.518 512h-194.534c-0.036-0.036-0.071-0.071-0.098-0.098h-430.617c-2.808 0-5.936-0.195-5.936-1.582 0-1.982 5.625-2.666 15.79-3.128 271.395-12.191 349.065-20.322 349.065-54.469 0-6.771-0.302-12.413-14.892-27.004 0.009 0 0.018 0.009 0.027 0.009-0.009-0.009-0.018-0.009-0.027-0.018-67.966-67.709-127.323-126.967-127.323-126.967h195.387c80.406 79.9 213.158 213.256 213.158 213.256z"/>
<glyph unicode="" glyph-name="slash-3" d="M938.667 512c0 0-132.752-133.356-213.158-213.256h-195.395c59.365 59.258 59.365 59.258 127.331 126.967 27.101 26.995 65.114 64.874 86.688 86.289h194.534zM716.517 512h-194.534c-21.574-21.414-59.587-59.294-86.688-86.289-67.966-67.709-127.322-126.967-127.322-126.967h195.387c80.406 79.9 213.158 213.256 213.158 213.256zM494.366 512h-194.534c-0.036-0.036-0.071-0.071-0.098-0.098h-208.466c-2.808 0-5.936-0.195-5.936-1.582 0-1.981 5.66-2.159 15.79-3.128 113.088-10.814 137.603-19.14 137.603-41.718 0-10.201-3.608-17.78-25.582-39.754 0.009 0 0.018 0.009 0.018 0.009 0-0.009-0.009-0.009-0.018-0.018-67.966-67.709-127.322-126.967-127.322-126.967h195.387c80.406 79.9 213.158 213.256 213.158 213.256z"/>
<glyph unicode="" glyph-name="slash-1" d="M744.133 512c-0.027-0.036-0.071-0.071-0.098-0.098h-652.768c-2.808 0-5.936-0.195-5.936-1.582 0-1.982 5.625-2.621 15.79-3.128 364.383-17.905 571.206-23.432 571.206-57.579 0-5.047-0.302-9.303-14.892-23.894 0.018 0.009 0.027 0.018 0.044 0.018-0.009-0.009-0.027-0.018-0.036-0.027-67.966-67.709-127.323-126.967-127.323-126.967h195.387c80.406 79.9 213.158 213.256 213.158 213.256h-194.534z"/>
<glyph unicode="" glyph-name="plus-circle" d="M512 56.889c204.223 0 369.778 165.555 369.778 369.778s-165.555 369.778-369.778 369.778c-204.223 0-369.778-165.555-369.778-369.778s165.555-369.778 369.778-369.778zM483.556 455.111h-170.667v-56.889h170.667v-170.667h56.889v170.667h170.667v56.889h-170.667v170.667h-56.889v-170.667zM512-0c-235.641 0-426.667 191.025-426.667 426.667s191.025 426.667 426.667 426.667c235.641 0 426.667-191.025 426.667-426.667s-191.025-426.667-426.667-426.667z"/>
<glyph unicode="" glyph-name="minus-circle" d="M512 56.889c204.223 0 369.778 165.555 369.778 369.778s-165.555 369.778-369.778 369.778c-204.223 0-369.778-165.555-369.778-369.778s165.555-369.778 369.778-369.778zM512-0c-235.641 0-426.667 191.025-426.667 426.667s191.025 426.667 426.667 426.667c235.641 0 426.667-191.025 426.667-426.667s-191.025-426.667-426.667-426.667zM312.889 398.223h398.222v56.889h-398.222v-56.889z"/>
<glyph unicode="" glyph-name="Chevron-Left" d="M400.213 396.374l312.747-298.667-62.72-60.587-312.747 299.093c-24.841 23.529-38.913 56.238-38.913 90.453s14.071 66.925 38.913 90.453l312.747 298.667 62.72-60.587-312.747-298.667c-8.077-8.011-12.621-18.917-12.621-30.293s4.543-22.282 12.621-30.293v0.427z"/>
<glyph unicode="" glyph-name="Rain" d="M247.107 676.394c33.311 102.698 129.767 176.94 243.56 176.94 111.502 0 206.359-71.283 241.472-170.773 114.666-3.594 206.528-97.689 206.528-213.227 0-117.815-95.519-213.333-213.333-213.333v85.333c70.687 0 128 57.313 128 128s-57.313 128-128 128h-64c0 94.265-76.412 170.667-170.667 170.667s-170.667-76.402-170.667-170.667h-21.333c-70.687 0-128-57.313-128-128s57.313-128 128-128v-85.333c-117.815 0-213.333 95.519-213.333 213.333 0 100.037 68.866 183.998 161.774 207.060zM384 42.667c-23.467 0-42.667 19.2-42.667 42.667s19.2 42.667 42.667 42.667c23.467 0 42.667-19.2 42.667-42.667s-19.2-42.667-42.667-42.667zM512-0c-23.467 0-42.667 19.2-42.667 42.667s19.2 42.667 42.667 42.667c23.467 0 42.667-19.2 42.667-42.667s-19.2-42.667-42.667-42.667zM640 42.667c-23.467 0-42.667 19.2-42.667 42.667s19.2 42.667 42.667 42.667c23.467 0 42.667-19.2 42.667-42.667s-19.2-42.667-42.667-42.667zM384 170.667c-23.467 0-42.667 19.2-42.667 42.667v128c0 23.467 19.2 42.667 42.667 42.667s42.667-19.2 42.667-42.667v-128c0-23.467-19.2-42.667-42.667-42.667zM512 128c-23.467 0-42.667 19.2-42.667 42.667v170.667c0 23.467 19.2 42.667 42.667 42.667s42.667-19.2 42.667-42.667v-170.667c0-23.467-19.2-42.667-42.667-42.667zM640 170.667c-23.467 0-42.667 19.2-42.667 42.667v128c0 23.467 19.2 42.667 42.667 42.667s42.667-19.2 42.667-42.667v-128c0-23.467-19.2-42.667-42.667-42.667z"/>
<glyph unicode="" glyph-name="sign-out" d="M512 426.667c-117.821 0-213.333 95.513-213.333 213.333s95.513 213.333 213.333 213.333c117.821 0 213.333-95.513 213.333-213.333s-95.513-213.333-213.333-213.333zM512 768c-70.692 0-128-57.308-128-128s57.308-128 128-128c70.692 0 128 57.308 128 128s-57.308 128-128 128zM597.333 298.667h-252.587c-35.554-0.062-67.343-22.162-79.787-55.467l-96.853-258.133-80.213 29.867 96.853 258.56c25.082 66.588 88.845 110.627 160 110.507h334.507c2.791-0.011 5.57-0.089 8.336-0.234l-90.256-85.099zM512 140.502v85.333h341.333l-97.835 97.835 60.331 60.331 140.501-140.501c33.323-33.323 33.323-87.339 0-120.661l-140.501-140.501-60.331 60.331 97.835 97.835h-341.333z"/>
<glyph unicode="" glyph-name="finish-flag" d="M449.212 575.446l-134.229 34.859-35.669-137.685 134.187-34.816-35.755-137.685 134.272-34.816 35.712 137.643 134.187-34.816-35.712-137.685 92.928-24.107c22.784-5.931 46.080 7.765 52.011 30.592l25.045 96.384-134.272 34.816 35.755 137.643 134.229-34.816 35.712 137.643-134.187 34.859-35.755-137.685-134.229 34.859 35.712 137.643-134.187 34.859-35.752-137.673-35.715-137.685 134.229-34.816 35.712 137.685-134.226 34.815zM320.785 799.872l619.221-161.792-107.861-412.843c-11.947-45.611-58.539-72.875-104.149-60.971l-495.36 129.451-64.768-247.68-82.517 21.589 194.176 743.040 41.259-10.795z"/>
<glyph unicode="" glyph-name="warning" d="M550.538 716.163c-4.214 8.869-11.358 16.013-20.227 20.227-21.284 10.113-46.736 1.057-56.849-20.227l-277.951-584.982h632.978l-277.951 584.982zM627.613 752.785l335.898-706.937h-903.022l335.898 706.937c30.339 63.851 106.695 91.019 170.546 60.68 26.606-12.642 48.038-34.074 60.68-60.68zM469.333 196.575h79.511v88.897h-79.511v-88.897zM476.511 334.615h65.155l7.73 237.427h-80.063l7.178-237.427z"/>
<glyph unicode="" glyph-name="Flag" d="M304.486 800.802l-41.515 9.856-177.664-747.136 83.072-19.755 59.179 249.045 498.133-118.443c45.824-10.88 91.819 17.451 102.741 63.275l98.731 415.104-622.677 148.053z"/>
<glyph unicode="" glyph-name="Globe" d="M663.915 121.46c19.029 37.931 34.304 83.413 44.885 134.528h98.347c-33.493-57.685-83.371-104.619-143.232-134.528zM216.811 255.988h98.389c10.581-51.115 25.856-96.597 44.885-134.528-59.861 29.909-109.739 76.843-143.275 134.528zM360.085 731.892c-19.029-37.931-34.347-83.413-44.885-134.571h-98.389c33.536 57.728 83.413 104.619 143.275 134.571zM511.979 767.988c36.011 0 83.2-63.147 109.013-170.667h-217.984c25.813 107.52 73.003 170.667 108.971 170.667zM170.645 426.654c0 29.525 4.181 58.027 11.264 85.333h120.704c-2.517-27.435-3.968-55.893-3.968-85.333 0-29.397 1.451-57.856 3.968-85.333h-120.704c-7.083 27.349-11.264 55.851-11.264 85.333zM388.629 341.321c-2.901 26.837-4.651 55.168-4.651 85.333s1.749 58.496 4.651 85.333h246.741c2.859-26.837 4.608-55.168 4.608-85.333s-1.749-58.496-4.608-85.333h-246.741zM511.979 85.321c-35.968 0-83.157 63.189-108.971 170.667h217.984c-25.813-107.477-73.003-170.667-109.013-170.667zM853.312 426.654c0-29.483-4.139-57.984-11.221-85.333h-120.704c2.517 27.477 3.925 55.936 3.925 85.333 0 29.44-1.408 57.899-3.925 85.333h120.704c7.083-27.307 11.221-55.808 11.221-85.333zM807.147 597.321h-98.347c-10.539 51.157-25.856 96.64-44.885 134.571 59.861-29.952 109.739-76.843 143.232-134.571zM511.979 853.321c-235.221 0-426.667-191.403-426.667-426.667 0-235.221 191.445-426.667 426.667-426.667 235.264 0 426.667 191.445 426.667 426.667 0 235.264-191.403 426.667-426.667 426.667z"/>
<glyph unicode="" glyph-name="Tick" d="M841.387 610.56l-353.707-371.627c-16.067-16.392-38.060-25.62-61.013-25.6-22.447 0.208-43.908 9.252-59.733 25.173l-181.333 155.733 55.467 64.853 185.6-160.427 355.413 368.64 59.307-56.747z"/>
<glyph unicode="" glyph-name="Arrow-down" d="M469.333 247.74v520.26h85.333v-517.505l183.81 176.176 59.047-61.605-195.691-187.555c-51.047-50.666-133.532-50.114-183.209 0.519l-192.384 187.264 59.521 61.148 183.573-178.702z"/>
<glyph unicode="" glyph-name="Map-pin" d="M512-0c-27.733 0-298.667 389.718-298.667 554.667s133.718 298.667 298.667 298.667c164.949 0 298.667-133.718 298.667-298.667s-270.933-554.667-298.667-554.667zM512 384c94.257 0 170.667 76.41 170.667 170.667s-76.41 170.667-170.667 170.667c-94.257 0-170.667-76.41-170.667-170.667s76.41-170.667 170.667-170.667z"/>
<glyph unicode="" glyph-name="Bullet" d="M512 256c-94.257 0-170.667 76.41-170.667 170.667s76.41 170.667 170.667 170.667c94.257 0 170.667-76.41 170.667-170.667s-76.41-170.667-170.667-170.667zM512 341.334c47.128 0 85.333 38.205 85.333 85.333s-38.205 85.333-85.333 85.333c-47.128 0-85.333-38.205-85.333-85.333s38.205-85.333 85.333-85.333z"/>
<glyph unicode="" glyph-name="instagram" d="M512 853.334c-115.883 0-130.389-0.512-175.915-2.603-45.397-2.005-76.416-9.216-103.552-19.797-28.075-10.88-51.883-25.472-75.605-49.237-23.68-23.68-38.272-47.488-49.195-75.52-10.539-27.179-17.749-58.155-19.84-103.595-2.048-45.483-2.56-60.032-2.56-175.915s0.512-130.432 2.56-175.915c2.091-45.44 9.301-76.416 19.84-103.595 10.923-28.032 25.515-51.84 49.195-75.52 23.723-23.765 47.531-38.357 75.605-49.237 27.136-10.581 58.155-17.792 103.552-19.797 45.525-2.091 60.032-2.603 175.915-2.603s130.389 0.512 175.915 2.603c45.397 2.005 76.416 9.216 103.552 19.797 28.075 10.88 51.883 25.472 75.605 49.237 23.68 23.68 38.272 47.488 49.195 75.52 10.539 27.179 17.749 58.155 19.84 103.595 2.048 45.483 2.56 60.032 2.56 175.915s-0.512 130.432-2.56 175.915c-2.091 45.44-9.301 76.416-19.84 103.595-10.923 28.032-25.515 51.84-49.195 75.52-23.723 23.765-47.531 38.357-75.605 49.237-27.136 10.581-58.155 17.792-103.552 19.797-45.525 2.091-60.032 2.603-175.915 2.603zM512 776.448c113.92 0 127.403-0.427 172.416-2.475 41.6-1.877 64.171-8.832 79.232-14.677 19.883-7.765 34.133-17.024 49.024-31.915 14.933-14.976 24.192-29.184 31.915-49.109 5.888-15.019 12.8-37.589 14.72-79.189 2.048-45.013 2.475-58.496 2.475-172.416s-0.427-127.403-2.475-172.416c-1.92-41.6-8.832-64.171-14.72-79.189-7.723-19.925-16.981-34.133-31.915-49.109-14.891-14.891-29.141-24.149-49.024-31.915-15.061-5.845-37.632-12.8-79.232-14.677-45.013-2.048-58.496-2.475-172.416-2.475s-127.403 0.427-172.416 2.475c-41.6 1.877-64.171 8.832-79.232 14.677-19.883 7.765-34.133 17.024-49.024 31.915-14.933 14.976-24.192 29.184-31.915 49.109-5.888 15.019-12.8 37.589-14.72 79.189-2.048 45.013-2.475 58.496-2.475 172.416s0.427 127.403 2.475 172.416c1.92 41.6 8.832 64.171 14.72 79.189 7.723 19.925 16.981 34.133 31.915 49.109 14.891 14.891 29.141 24.149 49.024 31.915 15.061 5.845 37.632 12.8 79.232 14.677 45.013 2.048 58.496 2.475 172.416 2.475zM512 284.459c-78.549 0-142.208 63.659-142.208 142.208s63.659 142.208 142.208 142.208c78.549 0 142.208-63.659 142.208-142.208s-63.659-142.208-142.208-142.208zM512 645.76c-121.003 0-219.093-98.091-219.093-219.093s98.091-219.093 219.093-219.093c121.003 0 219.093 98.091 219.093 219.093s-98.091 219.093-219.093 219.093zM790.959 654.417c0-28.288-22.912-51.2-51.2-51.2s-51.2 22.912-51.2 51.2c0 28.288 22.912 51.2 51.2 51.2s51.2-22.912 51.2-51.2z"/>
<glyph unicode="" glyph-name="youtube" d="M920.832 632.043c17.835-66.56 17.835-205.355 17.835-205.355s0-138.837-17.835-205.397c-9.771-36.736-38.699-65.664-75.477-75.477-66.517-17.792-333.355-17.792-333.355-17.792s-266.837 0-333.397 17.792c-36.693 9.813-65.621 38.741-75.435 75.477-17.835 66.56-17.835 205.397-17.835 205.397s0 138.795 17.835 205.355c9.813 36.736 38.741 65.664 75.435 75.477 66.56 17.835 333.397 17.835 333.397 17.835s266.837 0 333.355-17.835c36.779-9.813 65.707-38.741 75.477-75.477zM426.667 298.667l221.696 128-221.696 128v-256z"/>
</font>
</defs>
</svg>
